<svg width="167" height="51" viewBox="0 0 167 51" fill="none" xmlns="http://www.w3.org/2000/svg"><g clip-path="url(#clip0_7361_350)"><path d="M51.886 25.5C51.886 5.103 46.58 0 25.943 0 5.307 0 0 5.103 0 25.5S5.23 51 25.943 51s25.943-5.098 25.943-25.5z" fill="#1457FF"/><path d="M33.593 45.677c-3.235-1.738-5.8-3.868-7.716-6.417a15.566 15.566 0 01-5.656-.941c-2.757-1.013-9.99-4.953-9.52-14.602.335-6.873 5.56-13.215 13.079-13.934l.504 5.088c1.687-2.576 4.066-4.172 6.803-4.536 5.345-.71 10.622 3.526 10.903 12.05.23 7.012-3.231 12.934-9.445 15.527 1.099.99 2.389 1.877 3.879 2.678l-2.83 5.088v-.001zm-9.767-30.056c-2.404.38-3.983 1.69-4.902 2.761a9.496 9.496 0 00-2.236 5.613c-.134 2.76.773 5.24 2.555 6.984a8.578 8.578 0 003.484 2.06c-.648-2.098-1.016-4.388-1.109-6.878-.146-3.904.559-7.441 2.036-10.227l.17-.313h.002zm8.41.436c-.117 0-.237.008-.359.025-2.683.357-4.558 4.599-4.362 9.866.101 2.696.575 5.026 1.463 7.054 1.838-.514 3.383-1.443 4.552-2.75 1.72-1.924 2.575-4.586 2.473-7.695-.088-2.695-.852-4.833-2.097-5.869-.505-.419-1.065-.63-1.67-.63h.001z" fill="#fff"/><path d="M100.796 18.569c-2.769 0-4.873 1.125-6.056 2.83h-.112V11.165h-5.724v27.583h5.613v-2.721h.147c1.144 2.104 3.472 3.193 6.094 3.193 5.132 0 9.526-3.775 9.526-10.307s-4.098-10.343-9.49-10.343h.002zM99.54 34.03c-2.696 0-4.8-1.778-4.8-4.828 0-3.05 2.105-4.864 4.8-4.864 2.696 0 4.726 1.997 4.726 4.826 0 2.83-2.068 4.864-4.726 4.864v.003zm19.643-14.99h-5.724v19.708h5.724V19.039zm16.022-.47c-2.88 0-4.725 1.199-5.981 3.049h-.148v-2.577h-5.613v19.709h5.724v-9.69c0-2.758 1.22-4.573 3.877-4.573 2.658 0 3.841 1.852 3.841 4.5v9.763h5.686V26.628c0-4.79-2.512-8.057-7.386-8.057zm26.071-7.406v10.562h-.149c-1.108-2.068-3.396-3.158-6.018-3.158-5.169 0-9.526 3.775-9.526 10.272s4.136 10.38 9.489 10.38c2.733 0 4.985-1.124 6.167-2.866h.11v2.395H167V11.164h-5.724zm-4.95 22.867c-2.696 0-4.726-1.814-4.726-4.828 0-3.015 2.069-4.864 4.726-4.864 2.656 0 4.801 1.778 4.801 4.826 0 3.048-2.105 4.864-4.801 4.864v.002zM85.45 24.99c0-8.794-5.599-14.387-13.766-14.387-8.166 0-13.974 5.579-13.974 14.387 0 8.809 5.808 14.292 13.974 14.292.49 0 .974-.022 1.448-.065 3.19 4.436 7.37 6.37 7.37 6.37l2.85-5.188c-1.523-.782-3.01-1.917-4.214-3.125 3.845-2.355 6.313-6.664 6.313-12.284zm-21.535-.023c0-4.8 3.18-8.004 7.663-8.004 4.483 0 7.666 3.12 7.666 7.978 0 3.085-1.265 5.64-3.468 7.03-.81-2.204-.93-3.95-.93-3.95l-5.712.54c.177 1.62.487 3.08.897 4.412-3.858-.663-6.115-3.795-6.115-8.005zm52.386-7.813c1.938 0 3.508-1.495 3.508-3.339 0-1.844-1.571-3.338-3.508-3.338s-3.509 1.494-3.509 3.338 1.571 3.34 3.509 3.34z" fill="#13172D"/></g><defs><clipPath id="clip0_7361_350"><path fill="#fff" d="M0 0h167v51H0z"/></clipPath></defs></svg>