<svg width="120" height="37" viewBox="0 0 120 37" fill="none" xmlns="http://www.w3.org/2000/svg"><g clip-path="url(#clip0_6713_3221)"><path d="M37.283 18.4C37.283 3.682 33.47 0 18.641 0 3.814 0 0 3.682 0 18.4c0 14.718 3.758 18.4 18.642 18.4s18.641-3.679 18.641-18.4z" fill="#81838E"/><path d="M24.14 32.96c-2.326-1.255-4.17-2.792-5.546-4.631a11.144 11.144 0 01-4.064-.68c-1.98-.73-7.178-3.573-6.84-10.536.24-4.959 3.995-9.535 9.397-10.054l.363 3.671c1.212-1.858 2.922-3.01 4.888-3.272 3.841-.513 7.632 2.543 7.834 8.695.166 5.06-2.321 9.332-6.786 11.203.79.715 1.716 1.354 2.787 1.933l-2.034 3.671zm-7.02-21.69c-1.727.274-2.861 1.22-3.522 1.993a6.868 6.868 0 00-1.607 4.05c-.096 1.991.556 3.78 1.837 5.04a6.16 6.16 0 002.503 1.487c-.465-1.515-.73-3.167-.797-4.964-.105-2.817.401-5.37 1.463-7.38.04-.075.081-.151.123-.225zm6.044.316c-.085 0-.17.005-.258.018-1.928.257-3.276 3.318-3.135 7.118.073 1.946.414 3.627 1.052 5.09 1.32-.37 2.43-1.04 3.27-1.984 1.237-1.389 1.85-3.309 1.778-5.553-.064-1.944-.613-3.487-1.508-4.234a1.83 1.83 0 00-1.2-.455h.002z" fill="#fff"/><path d="M72.428 13.399c-1.99 0-3.501.811-4.352 2.043h-.08V8.056h-4.113v19.903h4.033v-1.964h.106c.822 1.519 2.495 2.305 4.378 2.305 3.689 0 6.846-2.724 6.846-7.438 0-4.713-2.945-7.463-6.82-7.463h.002zm-.902 11.157c-1.938 0-3.45-1.283-3.45-3.484 0-2.2 1.513-3.51 3.45-3.51 1.937 0 3.395 1.442 3.395 3.483 0 2.041-1.486 3.51-3.395 3.51v.001zM85.64 13.738h-4.113v14.221h4.114V13.738zm11.513-.338c-2.07 0-3.395.865-4.298 2.2h-.106v-1.86h-4.033v14.222h4.113V20.97c0-1.99.876-3.3 2.786-3.3 1.91 0 2.76 1.336 2.76 3.246v7.046h4.085v-8.748c0-3.456-1.804-5.814-5.307-5.814zm18.734-5.344v7.621h-.107c-.796-1.492-2.441-2.279-4.324-2.279-3.715 0-6.845 2.724-6.845 7.412s2.971 7.49 6.818 7.49c1.964 0 3.582-.81 4.431-2.068h.08v1.728H120V8.056h-4.113zm-3.557 16.5c-1.937 0-3.396-1.31-3.396-3.484 0-2.175 1.487-3.51 3.396-3.51 1.909 0 3.45 1.283 3.45 3.482 0 2.2-1.513 3.51-3.45 3.51v.002zm-50.929-6.524c0-6.345-4.023-10.381-9.891-10.381s-10.042 4.025-10.042 10.381 4.174 10.313 10.042 10.313c.352 0 .699-.016 1.04-.047 2.293 3.2 5.296 4.596 5.296 4.596l2.048-3.743c-1.095-.564-2.163-1.384-3.028-2.255 2.762-1.7 4.536-4.809 4.536-8.864zm-15.474-.016c0-3.464 2.285-5.776 5.506-5.776s5.51 2.25 5.51 5.757c0 2.226-.91 4.07-2.493 5.072-.582-1.59-.669-2.85-.669-2.85l-4.103.39c.126 1.17.349 2.223.644 3.183-2.773-.478-4.395-2.738-4.395-5.776zm37.643-5.638c1.392 0 2.52-1.079 2.52-2.41 0-1.33-1.129-2.408-2.52-2.408-1.392 0-2.522 1.078-2.522 2.409 0 1.33 1.13 2.409 2.522 2.409z" fill="#81838E"/></g><defs><clipPath id="clip0_6713_3221"><path fill="#fff" d="M0 0h120v36.8H0z"/></clipPath></defs></svg>